<svg width="44" height="44" viewBox="0 0 44 44" fill="none" xmlns="http://www.w3.org/2000/svg">
<circle cx="22" cy="22" r="22" fill="#10D5C2"/>
<path fill-rule="evenodd" clip-rule="evenodd" d="M27.0283 17.6127V26.3861C27.0281 26.6101 27.0955 26.829 27.2217 27.0141C27.3479 27.1991 27.527 27.3418 27.7356 27.4235C27.9442 27.5051 28.1726 27.5219 28.3909 27.4716C28.6092 27.4214 28.8072 27.3064 28.9591 27.1417L33.0086 22.7539C33.1982 22.5484 33.3035 22.279 33.3035 21.9994C33.3035 21.7198 33.1982 21.4504 33.0086 21.2449L28.958 16.857C28.806 16.6928 28.6081 16.5782 28.39 16.5282C28.1719 16.4781 27.9438 16.495 27.7354 16.5766C27.5271 16.6582 27.3481 16.8007 27.222 16.9855C27.0959 17.1703 27.0284 17.3889 27.0283 17.6127V17.6127ZM15.9001 17.6127V26.3861C15.9003 26.6101 15.8329 26.829 15.7068 27.0141C15.5806 27.1991 15.4015 27.3418 15.1929 27.4235C14.9843 27.5051 14.7559 27.5219 14.5376 27.4716C14.3193 27.4214 14.1213 27.3064 13.9694 27.1417L9.91983 22.7539C9.73026 22.5484 9.625 22.279 9.625 21.9994C9.625 21.7198 9.73026 21.4504 9.91983 21.2449L13.9705 16.857C14.1225 16.6928 14.3204 16.5782 14.5385 16.5282C14.7566 16.4781 14.9847 16.495 15.1931 16.5766C15.4014 16.6582 15.5803 16.8007 15.7065 16.9855C15.8326 17.1703 15.9001 17.3889 15.9001 17.6127Z" fill="#A5F3EB"/>
</svg>
